# xmcd
#
# Track frame offsets: 
#        150
#        17815
#        35239
#        40808
#        57021
#        74161
#        91070
#        104738
#        118800
#        135705
#        153813
#        171620
#        190203
#        207104
#        224119
#        244769
#
# Disc length: 3480 seconds
#
# Revision: 0
# Processed by: cddbd v1.5.2PL0 Copyright (c) Steve Scherf et al.
# Submitted via: ExactAudioCopy v0.95a4
#
DISCID=f70d9610
DTITLE=The LACS - Keep It Redneck
DYEAR=2013
DGENRE=Country Rap
TTITLE0=Keep It Redneck
TTITLE1=Kick Dust (feat. Noah Gordon)
TTITLE2=Great Moments in Redneck History #3 (Skit)
TTITLE3=Shichya
TTITLE4=Make Things Right
TTITLE5=Smoke Stack
TTITLE6=Rusty's Junk Shack (Skit)
TTITLE7=Empties
TTITLE8=Get Lost
TTITLE9=All Weekend Long
TTITLE10=ReLacs (feat. Sarah Ross)
TTITLE11=She's Runnin'
TTITLE12=Memory
TTITLE13=Tylenol
TTITLE14=Field Party (Remix) [feat. Colt Ford and JJ Lawhorn]
TTITLE15=Kickin Up Mud
EXTD=
EXTT0=
EXTT1=
EXTT2=
EXTT3=
EXTT4=
EXTT5=
EXTT6=
EXTT7=
EXTT8=
EXTT9=
EXTT10=
EXTT11=
EXTT12=
EXTT13=
EXTT14=
EXTT15=
PLAYORDER=
